<?xml version="1.0" encoding="utf-8"?>
<!-- Generator: Adobe Illustrator 16.0.0, SVG Export Plug-In . SVG Version: 6.00 Build 0)  -->
<!DOCTYPE svg PUBLIC "-//W3C//DTD SVG 1.1//EN" "http://www.w3.org/Graphics/SVG/1.1/DTD/svg11.dtd">
<svg version="1.1" id="Layer_1" xmlns="http://www.w3.org/2000/svg" xmlns:xlink="http://www.w3.org/1999/xlink" x="0px" y="0px"
	 width="512px" height="512px" viewBox="0 0 512 512" enable-background="new 0 0 512 512" xml:space="preserve">
<g>
	<g>
		<rect x="76" y="121" fill="#00F0FB" width="360" height="270"/>
		<path fill="#00BFFF" d="M481,121v270c0,12.37-4.395,22.982-13.229,31.771C458.982,431.605,448.37,436,436,436H76
			c-12.37,0-22.972-4.395-31.784-13.229C35.406,413.982,31,403.37,31,391V121c0-12.37,4.406-22.972,13.216-31.784
			C53.028,80.406,63.63,76,76,76h360c12.37,0,22.982,4.406,31.771,13.216C476.605,98.028,481,108.63,481,121z M76,166h360v-45H76
			V166z M76,256v135h360V256H76z M76,391V121V391z"/>
	</g>
	<g>
		<path fill="#FFFFFF" d="M222.25,292.931V256h-27.06v36.931h-81.496L139.6,256h-26.61l-26.685,38.204v23.881H195.19v51.569h27.06
			v-51.569h33.12v-25.154H222.25z M222.25,141.069h-28.965L175.87,166h46.38V141.069z"/>
		<path fill="#FFFFFF" d="M412.315,268.421c-5.056-5.296-11.611-9.435-19.681-12.421h-81.871v8.279h21.961
			c20.16,0,35.821,3.136,46.966,9.392c11.145,6.27,16.71,16.5,16.71,30.718c0,14.012-4.516,24.992-13.531,32.957
			c-9.014,7.964-23.715,11.94-44.1,11.94c-10.185,0-20.806-1.322-31.829-3.977c-11.04-2.655-21.329-6.315-30.885-10.994v26.115
			c9.345,4.665,19.109,7.904,29.294,9.704c10.187,1.8,21.226,2.715,33.104,2.715c20.161,0,36.661-2.863,49.517-8.594
			c12.839-5.746,22.335-13.756,28.483-24.046c6.165-10.289,9.24-22.02,9.24-35.174C425.694,289.96,421.24,277.764,412.315,268.421z
			 M291.339,181.825c8.49-5.52,17.086-10.08,25.786-13.695c1.935-0.794,3.96-1.515,6.075-2.13c7.396-2.19,15.869-3.285,25.438-3.285
			c7.667,0,14.355,1.094,20.102,3.285h41.835c-2.506-3.931-5.595-7.56-9.24-10.919c-11.565-10.62-29.235-15.931-53.01-15.931
			c-15.285,0-28.921,2.34-40.904,7.005c-12,4.681-22.021,10.2-30.092,16.561l2.415,3.285L291.339,181.825z"/>
	</g>
	<path fill="#00FFFF" d="M222.25,166v90h-27.06v-34.71c0-11.025,0.209-20.415,0.645-28.169c0.419-7.74,0.734-15.12,0.944-22.125
		h-1.275c-1.695,4.035-3.811,8.385-6.36,13.049c-2.55,4.681-4.995,8.595-7.32,11.775L139.6,256h-26.61l62.88-90H222.25z"/>
	<path fill="#00FFFF" d="M371.575,249.956v1.274c7.889,0.915,14.925,2.505,21.06,4.77h-81.871v-15.6h22.276
		c18.674,0,32.849-3.93,42.51-11.775c9.66-7.86,14.49-18.255,14.49-31.2c0-11.04-3.721-19.589-11.146-25.635
		c-2.97-2.415-6.345-4.349-10.154-5.79h41.835c5.399,8.49,8.115,18.331,8.115,29.505c0,15.285-4.246,27.436-12.736,36.465
		C397.464,240.985,386.006,246.985,371.575,249.956z"/>
</g>
</svg>
